HIERARCHY
ROOT Hips
{
 OFFSET 0.000000 0.000000 0.000000
 CHANNELS 6 Xposition Yposition Zposition Yrotation Xrotation Zrotation
 JOINT Chest
 {
  OFFSET 0.000000 9.585900 0.002600
  CHANNELS 3 Yrotation Xrotation Zrotation
  JOINT Chest2
  {
   OFFSET 0.000000 9.601200 -0.005300
   CHANNELS 3 Yrotation Xrotation Zrotation
   JOINT Chest3
   {
    OFFSET 0.000000 9.561800 0.000000
    CHANNELS 3 Yrotation Xrotation Zrotation
    JOINT Chest4
    {
     OFFSET 0.000000 9.552100 0.000000
     CHANNELS 3 Yrotation Xrotation Zrotation
     JOINT Neck
     {
      OFFSET 0.000000 14.453000 0.000000
      CHANNELS 3 Yrotation Xrotation Zrotation
      JOINT Head
      {
       OFFSET 0.000000 8.936500 -0.011300
       CHANNELS 3 Yrotation Xrotation Zrotation
       End Site
       {
        OFFSET 0.000000 17.073600 -0.006000
       }
      }
     }
     JOINT RightCollar
     {
      OFFSET -2.921100 9.558500 0.000000
      CHANNELS 3 Yrotation Xrotation Zrotation
      JOINT RightShoulder
      {
       OFFSET -13.519700 0.000000 0.000000
       CHANNELS 3 Yrotation Xrotation Zrotation
       JOINT RightElbow
       {
        OFFSET 0.000000 -29.696600 0.000000
        CHANNELS 3 Yrotation Xrotation Zrotation
        JOINT RightWrist
        {
         OFFSET 0.000000 -24.004700 0.000000
         CHANNELS 3 Yrotation Xrotation Zrotation
         End Site
         {
          OFFSET 0.000000 -17.728500 0.000000
         }
        }
       }
      }
     }
     JOINT LeftCollar
     {
      OFFSET 2.921100 9.558500 0.000000
      CHANNELS 3 Yrotation Xrotation Zrotation
      JOINT LeftShoulder
      {
       OFFSET 13.519700 0.000000 0.000000
       CHANNELS 3 Yrotation Xrotation Zrotation
       JOINT LeftElbow
       {
        OFFSET 0.000000 -29.696600 0.000000
        CHANNELS 3 Yrotation Xrotation Zrotation
        JOINT LeftWrist
        {
         OFFSET 0.000000 -24.004700 0.000000
         CHANNELS 3 Yrotation Xrotation Zrotation
         End Site
         {
          OFFSET 0.000000 -17.728500 0.000000
         }
        }
       }
      }
     }
    }
   }
  }
 }
 JOINT RightHip
 {
  OFFSET -7.771700 -0.012900 -0.001300
  CHANNELS 3 Yrotation Xrotation Zrotation
  JOINT RightKnee
  {
   OFFSET 0.000000 -40.869800 0.001200
   CHANNELS 3 Yrotation Xrotation Zrotation
   JOINT RightAnkle
   {
    OFFSET 0.000000 -39.717900 0.002100
    CHANNELS 3 Yrotation Xrotation Zrotation
    JOINT RightToe
    {
     OFFSET 0.000000 -4.965400 11.033500
     CHANNELS 3 Yrotation Xrotation Zrotation
     End Site
     {
      OFFSET 0.000000 -1.423100 5.872300
     }
    }
   }
  }
 }
 JOINT LeftHip
 {
  OFFSET 7.771700 -0.012900 -0.001300
  CHANNELS 3 Yrotation Xrotation Zrotation
  JOINT LeftKnee
  {
   OFFSET 0.000000 -40.869800 0.001200
   CHANNELS 3 Yrotation Xrotation Zrotation
   JOINT LeftAnkle
   {
    OFFSET 0.000000 -39.717900 0.002100
    CHANNELS 3 Yrotation Xrotation Zrotation
    JOINT LeftToe
    {
     OFFSET 0.000000 -4.965400 11.033500
     CHANNELS 3 Yrotation Xrotation Zrotation
     End Site
     {
      OFFSET 0.000000 -1.423100 5.872300
     }
    }
   }
  }
 }
}
MOTION
Frames: 15
Frame Time: 0.008333
-5.762226 52.920684 29.767504 170.793385 -38.684876 -2.819292 3.650803 21.060554 2.025774 0.401300 2.802633 0.334910 0.675002 4.573826 0.563716 3.082893 17.941562 2.615050 1.835946 16.632752 0.238415 3.290170 -4.836565 -0.179868 -5.873619 0.049845 -3.467050 -3.584487 -3.259003 5.621946 -127.232706 -82.942898 141.690406 6.115924 6.917358 21.037156 -3.010241 0.037419 -0.113109 10.249660 0.488955 2.467900 137.696357 -73.869192 -147.430951 -5.292941 0.835076 -3.842525 -5.747772 -41.999483 5.241625 -128.738565 85.606954 -124.240009 -0.552240 -10.941419 -4.040554 0.365593 -0.495273 0.190122 -0.605661 -39.086694 7.025821 73.907801 83.758019 63.716250 -5.831723 -12.955093 9.874951 0.613788 1.603808 0.273651
-5.763446 52.904932 29.765167 170.827552 -38.663574 -2.806225 3.637511 21.062974 2.007888 0.391281 2.794935 0.329424 0.710237 4.608055 0.573441 3.057415 17.923301 2.606647 1.840053 16.610453 0.235226 3.314489 -4.957069 -0.201152 -5.855294 -0.031095 -3.461532 -3.565199 -3.237611 5.622273 -127.484866 -82.781200 141.996756 6.190154 6.947520 21.162406 -3.024086 0.033683 -0.126386 10.405549 0.424196 2.437865 137.519198 -73.634147 -147.293937 -5.921757 2.570872 -6.134087 -5.685691 -42.015001 5.163110 -128.770919 85.606968 -124.233936 -0.574353 -10.939737 -4.030530 0.386671 -0.517584 0.183480 -0.638311 -39.105823 6.975424 74.002602 83.715433 63.807663 -5.815014 -12.938295 9.854166 0.591845 1.589086 0.266099
-5.762206 52.891913 29.762863 170.836538 -38.651284 -2.789883 3.648658 21.085110 2.008772 0.402525 2.793355 0.328917 0.691908 4.593637 0.566168 3.072847 17.952866 2.609041 1.835433 16.572054 0.230740 3.308155 -5.028225 -0.208899 -5.847715 -0.134755 -3.460037 -3.516360 -3.219536 5.637817 -127.681200 -82.605764 142.225354 6.277022 6.959864 21.277133 -3.039216 0.013945 -0.137249 10.570836 0.347709 2.393770 137.641911 -73.408779 -147.439247 -6.697169 4.393088 -8.799084 -5.593687 -42.024683 5.083290 -128.840660 85.613812 -124.248188 -0.582999 -10.923248 -4.021018 0.388486 -0.542404 0.179136 -0.631698 -39.114869 6.947117 73.976801 83.709257 63.782251 -5.799436 -12.917627 9.850199 0.593511 1.565544 0.264646
-5.762627 52.879154 29.762261 170.846853 -38.628631 -2.764821 3.653132 21.108648 2.001326 0.421220 2.825815 0.339314 0.695621 4.603616 0.564242 3.050697 17.917247 2.590645 1.818198 16.525367 0.227388 3.311602 -5.111169 -0.224462 -5.845281 -0.244409 -3.467419 -3.517013 -3.170179 5.653951 -127.913980 -82.389253 142.550759 6.354485 6.967400 21.382898 -3.048439 -0.005403 -0.143197 10.762748 0.257893 2.333554 138.172106 -73.220563 -147.999967 -7.644603 6.281474 -11.834644 -5.487779 -42.051033 4.981003 -128.941205 85.613719 -124.276572 -0.598658 -10.898683 -4.025741 0.406079 -0.574117 0.183418 -0.629303 -39.134238 6.908448 73.916251 83.701853 63.716628 -5.779646 -12.889686 9.844734 0.590641 1.539995 0.261887
-5.761048 52.866821 29.763630 170.807443 -38.600907 -2.721579 3.690556 21.118042 1.997050 0.415504 2.808720 0.333962 0.706114 4.632624 0.569221 3.035905 17.881587 2.580508 1.823168 16.516116 0.225176 3.307181 -5.216317 -0.241405 -5.837965 -0.287758 -3.475588 -3.453009 -3.162829 5.683466 -128.344319 -82.181605 143.021194 6.395079 6.983499 21.478526 -3.029110 0.014036 -0.144088 11.001888 0.158552 2.261118 139.127686 -73.082104 -149.036416 -8.779641 8.194958 -15.182882 -5.323091 -42.092322 4.867900 -129.126738 85.617660 -124.366825 -0.572465 -10.863002 -4.015012 0.382156 -0.604974 0.166766 -0.588875 -39.160279 6.889574 73.809522 83.697299 63.597877 -5.727437 -12.830550 9.860089 0.550513 1.481879 0.243413
-5.758825 52.855935 29.764932 170.794307 -38.578497 -2.697953 3.707335 21.133218 1.993610 0.410180 2.792898 0.329743 0.708000 4.636829 0.568817 3.079227 17.965554 2.593732 1.794061 16.409772 0.215266 3.288390 -5.342182 -0.253282 -5.853108 -0.479063 -3.503072 -3.437024 -3.092690 5.728516 -128.919458 -81.962528 143.666289 6.387372 7.016038 21.564176 -3.060388 -0.081260 -0.139304 11.321670 0.062304 2.196768 140.397080 -72.977815 -150.475340 -10.101437 10.074210 -18.760443 -5.264954 -42.114797 4.821686 -129.120999 85.622920 -124.331190 -0.570922 -10.830307 -4.005500 0.381715 -0.631991 0.159070 -0.565668 -39.181117 6.877725 73.743586 83.704038 63.529842 -5.727037 -12.799095 9.867658 0.546987 1.452602 0.239392
-5.755302 52.845848 29.766841 170.781361 -38.557953 -2.682552 3.727620 21.146058 1.998733 0.412910 2.803299 0.330017 0.701519 4.618941 0.564069 3.108098 18.014070 2.600079 1.775398 16.333934 0.209086 3.268442 -5.476245 -0.263876 -5.856911 -0.642222 -3.540804 -3.447478 -3.006763 5.773047 -129.719593 -81.739849 144.560267 6.337022 7.066682 21.639656 -3.077988 -0.141764 -0.132498 11.707781 -0.055398 2.149748 141.776381 -72.886825 -152.137371 -11.574040 11.813425 -22.455076 -5.208476 -42.134276 4.771188 -129.253544 85.645983 -124.415189 -0.577869 -10.793889 -4.012292 0.385570 -0.661808 0.153398 -0.542478 -39.199676 6.875790 73.653298 83.714993 63.441219 -5.726255 -12.772507 9.872754 0.537244 1.428219 0.238957
-5.751678 52.836501 29.768916 170.761456 -38.540755 -2.663989 3.756192 21.157468 2.005644 0.410196 2.813016 0.329689 0.705088 4.627126 0.563876 3.123517 18.016064 2.598897 1.773034 16.262600 0.199800 3.234980 -5.597957 -0.263208 -5.862055 -0.770277 -3.578874 -3.452379 -2.931677 5.817128 -130.862116 -81.527430 145.786076 6.261443 7.133550 21.721833 -3.045947 -0.150525 -0.099861 12.093902 -0.221473 2.100363 143.098518 -72.782530 -153.841160 -13.144625 13.285965 -26.106249 -5.182811 -42.145180 4.741685 -129.353406 85.672348 -124.489416 -0.579766 -10.768859 -4.032304 0.385929 -0.679675 0.156151 -0.495708 -39.208904 6.891385 73.507613 83.737961 63.278154 -5.739646 -12.755107 9.908138 0.533483 1.410780 0.237591
-5.749764 52.826985 29.771811 170.741855 -38.518811 -2.637536 3.780472 21.163158 2.002323 0.415520 2.817750 0.332196 0.727719 4.666507 0.570738 3.110307 17.984758 2.590600 1.758771 16.196024 0.193647 3.211754 -5.721709 -0.271184 -5.872366 -0.896635 -3.621824 -3.390188 -2.879016 5.859898 -132.306698 -81.332339 147.235591 6.191524 7.217182 21.845527 -3.032881 -0.181699 -0.068232 12.507654 -0.387271 2.088805 144.304717 -72.629721 -155.486118 -14.759552 14.419325 -29.571159 -5.230092 -42.157679 4.741304 -129.489075 85.705989 -124.650895 -0.565104 -10.746664 -4.058563 0.374410 -0.696389 0.152751 -0.464763 -39.227119 6.880039 73.445079 83.737927 63.208096 -5.727215 -12.733695 9.917946 0.522826 1.389235 0.232189
-5.744307 52.817966 29.775989 170.720483 -38.496192 -2.634290 3.811039 21.166874 2.023807 0.431606 2.842007 0.337096 0.716927 4.645065 0.566885 3.123191 17.986271 2.593290 1.748152 16.123978 0.181921 3.184406 -5.838106 -0.283309 -5.892971 -0.974559 -3.644891 -3.381930 -2.843837 5.879338 -133.992584 -81.109204 148.989019 6.158716 7.312054 22.047713 -3.036715 -0.220675 -0.050810 12.904736 -0.563452 2.113761 145.415998 -72.416312 -157.041850 -16.344723 15.198604 -32.800030 -5.312395 -42.166713 4.770260 -129.512939 85.730642 -124.684689 -0.554905 -10.717526 -4.103262 0.394276 -0.720762 0.146097 -0.440263 -39.246033 6.907130 73.311190 83.757472 63.076730 -5.730696 -12.721556 9.907090 0.533672 1.379351 0.250499
-5.741805 52.809642 29.779808 170.709105 -38.475444 -2.622313 3.821003 21.159982 2.023155 0.431030 2.835654 0.334858 0.724900 4.665095 0.575750 3.135945 17.984644 2.596395 1.727628 16.079162 0.170410 3.168766 -5.980708 -0.315029 -5.908171 -1.124932 -3.699050 -3.374715 -2.730219 5.919869 -135.699927 -80.851502 150.766364 6.179037 7.409324 22.368170 -3.035095 -0.276062 -0.025027 13.226556 -0.721898 2.143505 146.484330 -72.158164 -158.508460 -17.797649 15.640377 -35.808417 -5.385368 -42.174679 4.790168 -129.560553 85.758260 -124.775587 -0.513690 -10.697994 -4.109745 0.340968 -0.728306 0.137478 -0.389962 -39.258635 6.930594 73.053057 83.793162 62.812696 -5.786332 -12.699915 9.922844 0.577826 1.370820 0.272820
-5.739126 52.802642 29.783399 170.696577 -38.460523 -2.613429 3.831841 21.157857 2.026286 0.435371 2.848649 0.339718 0.725195 4.666475 0.580263 3.147121 17.982308 2.599268 1.709408 16.033775 0.153571 3.156470 -6.126575 -0.355927 -5.922798 -1.281735 -3.752277 -3.367451 -2.624969 5.949022 -137.183622 -80.549494 152.319519 6.252559 7.512135 22.857277 -3.027144 -0.350531 0.007192 13.461380 -0.853736 2.176469 147.543007 -71.867384 -159.898638 -19.012480 15.804580 -38.605723 -5.419608 -42.180639 4.790773 -129.406831 85.761625 -124.621397 -0.495910 -10.671988 -4.142115 0.345178 -0.749476 0.145494 -0.357330 -39.267140 6.945465 72.890059 83.810036 62.642437 -5.794282 -12.681937 9.936706 0.576464 1.357292 0.276258
-5.740176 52.791631 29.792770 170.671699 -38.400891 -2.582922 3.844099 21.156930 2.035588 0.437589 2.833646 0.332603 0.724194 4.651412 0.573503 3.147483 17.967882 2.591661 1.707314 15.977954 0.138380 3.148695 -6.254622 -0.401598 -5.932319 -1.402265 -3.788231 -3.411151 -2.579441 5.929686 -138.073680 -80.198614 153.323548 6.370416 7.626897 23.559282 -3.025193 -0.417199 0.036054 13.644771 -0.976330 2.231236 148.551377 -71.536217 -161.193909 -19.932971 15.776690 -41.194865 -5.438752 -42.239482 4.764248 -129.013922 85.737037 -124.201567 -0.476351 -10.649339 -4.209252 0.396571 -0.764675 0.169170 -0.316251 -39.321283 6.944261 72.734525 83.809844 62.451376 -5.760260 -12.662896 9.981128 0.520929 1.343342 0.256237
-5.740545 52.784024 29.799360 170.642054 -38.366302 -2.552206 3.859775 21.150261 2.034051 0.438404 2.820607 0.325695 0.726813 4.663423 0.581475 3.147986 17.955613 2.584540 1.719675 15.874449 0.109463 3.134605 -6.342880 -0.440126 -5.944176 -1.519830 -3.821660 -3.465193 -2.516269 5.905808 -138.766811 -79.784590 154.148617 6.519849 7.755543 24.480685 -3.035117 -0.477146 0.055634 13.798729 -1.102224 2.308672 149.391837 -71.152711 -162.315699 -20.589754 15.642218 -43.610180 -5.495546 -42.264912 4.761770 -128.887691 85.749554 -124.097450 -0.444808 -10.634474 -4.219949 0.395150 -0.770966 0.145916 -0.272730 -39.351511 6.937627 72.590628 83.815618 62.298499 -5.752095 -12.640509 9.991588 0.515455 1.326847 0.253154
-5.741106 52.775765 29.807885 170.606815 -38.319211 -2.518895 3.876639 21.130198 2.031864 0.443270 2.820469 0.325796 0.725246 4.662116 0.583338 3.155218 17.954340 2.584437 1.716669 15.799368 0.080466 3.137317 -6.478751 -0.503662 -5.962901 -1.644430 -3.859561 -3.545339 -2.462074 5.865587 -139.052064 -79.322592 154.598754 6.693492 7.901892 25.596283 -3.065066 -0.570247 0.077996 13.941063 -1.194456 2.396867 149.889937 -70.713084 -163.120956 -21.076633 15.468988 -45.909609 -5.610660 -42.295452 4.782563 -128.862621 85.782668 -124.132589 -0.365116 -10.633188 -4.249341 0.346186 -0.759140 0.125840 -0.218724 -39.394954 6.939173 72.415557 83.828872 62.113233 -5.767887 -12.615607 10.009931 0.525448 1.312555 0.255711
